<svg width="56.693000000000005" height="56.693000000000005" xmlns="http://www.w3.org/2000/svg">

 <g>
  <title>background</title>
  <rect fill="none" id="canvas_background" height="58.693" width="58.693" y="-1" x="-1"/>
 </g>
 <g>
  <title>Layer 1</title>
  <path fill="#ffffff" id="svg_1" d="m28.347,5.157c-13.6,0 -24.625,11.027 -24.625,24.625c0,13.6 11.025,24.623 24.625,24.623c13.6,0 24.625,-11.023 24.625,-24.623c0,-13.598 -11.026,-24.625 -24.625,-24.625zm6.517,24.522l-4.264,0c0,6.814 0,15.207 0,15.207l-6.32,0c0,0 0,-8.307 0,-15.207l-3.006,0l0,-5.369l3.006,0l0,-3.479c0,-2.49 1.182,-6.377 6.379,-6.377l4.68,0.018l0,5.215c0,0 -2.846,0 -3.398,0c-0.555,0 -1.34,0.277 -1.34,1.461l0,3.163l4.818,0l-0.555,5.368z"/>
 </g>
</svg>